<mxfile host="app.diagrams.net" modified="2023-02-27T13:29:46.403Z" agent="5.0 (Windows NT 10.0; Win64; x64) AppleWebKit/537.36 (KHTML, like Gecko) Chrome/110.0.0.0 Safari/537.36 Edg/110.0.1587.56" etag="zUgvy8k5hsfKTZRHS9NH" version="20.8.23" type="github">
  <diagram name="Page-1" id="W3psrjDupisM0Np9-XPx">
    <mxGraphModel dx="1027" dy="928" grid="1" gridSize="10" guides="1" tooltips="1" connect="1" arrows="1" fold="1" page="1" pageScale="1" pageWidth="827" pageHeight="1169" math="0" shadow="0">
      <root>
        <mxCell id="0" />
        <mxCell id="1" parent="0" />
        <mxCell id="mvkIkURgI0xtHV40OMwn-2" value="" style="rounded=1;whiteSpace=wrap;html=1;strokeWidth=5;" vertex="1" parent="1">
          <mxGeometry x="240" y="200" width="50" height="40" as="geometry" />
        </mxCell>
        <mxCell id="mvkIkURgI0xtHV40OMwn-5" style="rounded=0;orthogonalLoop=1;jettySize=auto;html=1;endArrow=none;endFill=0;strokeWidth=5;" edge="1" parent="1" source="mvkIkURgI0xtHV40OMwn-3" target="mvkIkURgI0xtHV40OMwn-2">
          <mxGeometry relative="1" as="geometry" />
        </mxCell>
        <mxCell id="mvkIkURgI0xtHV40OMwn-3" value="" style="rounded=1;whiteSpace=wrap;html=1;strokeWidth=5;" vertex="1" parent="1">
          <mxGeometry x="200" y="280" width="50" height="40" as="geometry" />
        </mxCell>
        <mxCell id="mvkIkURgI0xtHV40OMwn-4" value="" style="rounded=1;whiteSpace=wrap;html=1;strokeWidth=5;" vertex="1" parent="1">
          <mxGeometry x="280" y="280" width="50" height="40" as="geometry" />
        </mxCell>
        <mxCell id="mvkIkURgI0xtHV40OMwn-6" style="rounded=0;orthogonalLoop=1;jettySize=auto;html=1;endArrow=none;endFill=0;strokeWidth=5;" edge="1" parent="1" source="mvkIkURgI0xtHV40OMwn-4" target="mvkIkURgI0xtHV40OMwn-2">
          <mxGeometry relative="1" as="geometry">
            <mxPoint x="245" y="290" as="sourcePoint" />
            <mxPoint x="265" y="250" as="targetPoint" />
          </mxGeometry>
        </mxCell>
      </root>
    </mxGraphModel>
  </diagram>
</mxfile>
